<?xml version="1.0" encoding="UTF-8"?>
<svg width="1560px" height="256px" viewBox="0 0 1560 256" version="1.1" xmlns="http://www.w3.org/2000/svg" xmlns:xlink="http://www.w3.org/1999/xlink">
    <!-- Generator: Sketch 48.2 (47327) - http://www.bohemiancoding.com/sketch -->
    <title>Misha Krutiy Dash Logo-svg</title>
    <desc>Created with Sketch.</desc>
    <defs></defs>
    <g id="Exploration-2" stroke="none" stroke-width="1" fill="none" fill-rule="evenodd">
        <g id="Misha-Krutiy-Dash-Logo" fill="#121B1F">
            <path d="M104.409435,166.099617 L91.4285714,166.099617 L91.4285714,90.3459223 L111.669917,90.3459223 L134.881461,137.922277 L158.093004,90.3459223 L178.224343,90.3459223 L178.224343,166.099617 L165.243479,166.099617 L165.243479,106.927203 L138.401695,159.488779 L131.141212,159.488779 L104.409435,106.927203 L104.409435,166.099617 Z M246.013294,90.3459223 L258.994157,90.3459223 L258.994157,166.099617 L246.013294,166.099617 L246.013294,90.3459223 Z M349.994652,100.316366 C346.254384,100.316366 343.17421,101.074979 340.754037,102.592228 C338.333864,104.109477 337.123796,106.403378 337.123796,109.474001 C337.123796,112.544624 338.333864,114.892712 340.754037,116.518336 C343.17421,118.14396 348.326168,119.895995 356.210065,121.774494 C364.093962,123.652992 370.034297,126.290076 374.03125,129.685824 C378.028202,133.081571 380.026648,138.084805 380.026648,144.695676 C380.026648,151.306546 377.496506,156.671025 372.436144,160.789272 C367.375782,164.907519 360.73874,166.966612 352.52482,166.966612 C340.497293,166.966612 329.826691,162.884551 320.512691,154.720307 L328.653233,145.074986 C336.427122,151.721982 344.494244,155.04543 352.854842,155.04543 C357.035141,155.04543 360.353661,154.160381 362.810504,152.390257 C365.267346,150.620133 366.495749,148.272045 366.495749,145.345922 C366.495749,142.419799 365.340684,140.14396 363.030518,138.518336 C360.720353,136.892712 356.741795,135.41161 351.094725,134.074986 C345.447654,132.738362 341.157412,131.510131 338.223869,130.390257 C335.290326,129.270383 332.686845,127.807343 330.41335,126.001095 C325.866358,122.605347 323.592896,117.403429 323.592896,110.395183 C323.592896,103.386938 326.178042,97.9863353 331.348412,94.1932129 C336.518781,90.4000905 342.917476,88.5035577 350.544688,88.5035577 C355.458373,88.5035577 360.335315,89.2982953 365.175661,90.8877942 C370.016007,92.4772931 374.196243,94.717008 377.716495,97.607006 L370.786034,107.252326 C368.512538,105.229328 365.432364,103.567604 361.54542,102.267105 C357.658475,100.966605 353.808258,100.316366 349.994652,100.316366 Z M442.535249,166.099617 L442.535249,90.3459223 L455.516112,90.3459223 L455.516112,123.183361 L493.68865,123.183361 L493.68865,90.3459223 L506.669513,90.3459223 L506.669513,166.099617 L493.68865,166.099617 L493.68865,135.104543 L455.516112,135.104543 L455.516112,166.099617 L442.535249,166.099617 Z M585.349188,148.86809 L577.648676,166.099617 L563.787755,166.099617 L597.670008,90.3459223 L611.530929,90.3459223 L645.413182,166.099617 L631.552261,166.099617 L623.851749,148.86809 L585.349188,148.86809 Z M618.571397,137.055282 L604.600468,105.843459 L590.62954,137.055282 L618.571397,137.055282 Z M759.478544,60.952381 L774.146186,60.952381 L710.635296,195.047619 L695.967654,195.047619 L759.478544,60.952381 Z M835.078014,90.3459223 L848.058877,90.3459223 L848.058877,127.301587 L883.261218,90.3459223 L899.762315,90.3459223 L868.85026,123.508484 L900.202345,166.099617 L884.801321,166.099617 L859.279624,132.937055 L848.058877,144.858238 L848.058877,166.099617 L835.078014,166.099617 L835.078014,90.3459223 Z M1020.35478,114.946907 C1020.35478,127.446149 1014.8178,135.321275 1003.74367,138.572523 L1023.87501,166.099617 L1007.37391,166.099617 L989.002693,140.631637 L971.951559,140.631637 L971.951559,166.099617 L958.970696,166.099617 L958.970696,90.3459223 L987.572598,90.3459223 C999.30677,90.3459223 1007.70391,92.2966417 1012.76427,96.198139 C1017.82463,100.099636 1020.35478,106.349163 1020.35478,114.946907 Z M988.122634,129.035577 C995.456492,129.035577 1000.44344,127.91572 1003.08363,125.675972 C1005.72382,123.436223 1007.04389,119.841842 1007.04389,114.89272 C1007.04389,109.943599 1005.68715,106.547902 1002.97362,104.705528 C1000.26009,102.863154 995.419821,101.941981 988.452656,101.941981 L971.951559,101.941981 L971.951559,129.035577 L988.122634,129.035577 Z M1102.7747,148.759715 C1106.29495,152.805713 1111.06189,154.828681 1117.07565,154.828681 C1123.08942,154.828681 1127.85635,152.805713 1131.3766,148.759715 C1134.89686,144.713718 1136.65695,139.222804 1136.65695,132.286809 L1136.65695,90.3459223 L1149.63782,90.3459223 L1149.63782,132.828681 C1149.63782,143.738423 1146.59431,152.137354 1140.50721,158.025725 C1134.42011,163.914096 1126.60967,166.858238 1117.07565,166.858238 C1107.54164,166.858238 1099.7312,163.914096 1093.64409,158.025725 C1087.55699,152.137354 1084.51349,143.738423 1084.51349,132.828681 L1084.51349,90.3459223 L1097.49435,90.3459223 L1097.49435,132.286809 C1097.49435,139.222804 1099.25445,144.713718 1102.7747,148.759715 Z M1245.47863,102.050356 L1245.47863,166.099617 L1232.49777,166.099617 L1232.49777,102.050356 L1209.17622,102.050356 L1209.17622,90.3459223 L1268.80018,90.3459223 L1268.80018,102.050356 L1245.47863,102.050356 Z M1329.32865,90.3459223 L1342.30952,90.3459223 L1342.30952,166.099617 L1329.32865,166.099617 L1329.32865,90.3459223 Z M1440.35048,166.099617 L1427.1496,166.099617 L1427.1496,136.188287 L1398.5477,90.3459223 L1412.73864,90.3459223 L1433.75004,124.808976 L1454.76144,90.3459223 L1468.95238,90.3459223 L1440.35048,136.188287 L1440.35048,166.099617 Z" id="MISHA/KRUTIY"></path>
        </g>
    </g>
</svg>