<?xml version="1.0" encoding="UTF-8"?>
<svg width="256px" height="256px" viewBox="0 0 256 256" version="1.1" xmlns="http://www.w3.org/2000/svg" xmlns:xlink="http://www.w3.org/1999/xlink">
    <!-- Generator: Sketch 48.2 (47327) - http://www.bohemiancoding.com/sketch -->
    <title>MK Thumbnail Heavy-svg</title>
    <desc>Created with Sketch.</desc>
    <defs></defs>
    <g id="Exploration-2" stroke="none" stroke-width="1" fill="none" fill-rule="evenodd">
        <g id="MK-Thumbnail-Heavy" fill="#121B1F">
            <path d="M88.8089172,89.7452229 L70.7515924,126.242038 L61.866242,126.242038 L43.9044586,89.7452229 L43.9044586,131.783439 L29,131.783439 L29,65 L49.1592357,65 L66.3566879,101.687898 L83.6496815,65 L103.713376,65 L103.713376,131.783439 L88.8089172,131.783439 L88.8089172,89.7452229 Z M149.541401,84.8726115 L163.10828,84.8726115 L122.980892,172.484076 L109.509554,172.484076 L149.541401,84.8726115 Z M168.808917,125 L183.713376,125 L183.713376,152.420382 L208.936306,125 L227.375796,125 L200.815287,154.522293 C203.108292,157.707022 207.343918,163.646453 213.522293,172.340764 C219.700668,181.035075 224.318456,187.515902 227.375796,191.783439 L209.987261,191.783439 L190.401274,165.414013 L183.713376,172.866242 L183.713376,191.783439 L168.808917,191.783439 L168.808917,125 Z" id="M/K"></path>
        </g>
    </g>
</svg>