<?xml version="1.0" encoding="UTF-8"?>
<svg width="922px" height="256px" viewBox="0 0 922 256" version="1.1" xmlns="http://www.w3.org/2000/svg" xmlns:xlink="http://www.w3.org/1999/xlink">
    <!-- Generator: Sketch 48.2 (47327) - http://www.bohemiancoding.com/sketch -->
    <title>MKM Logo-svg</title>
    <desc>Created with Sketch.</desc>
    <defs></defs>
    <g id="Exploration-2" stroke="none" stroke-width="1" fill="none" fill-rule="evenodd">
        <g id="MKM-Logo" fill="#121B1F">
            <g id="Group" transform="translate(15.170370, 9.481481)">
                <g id="Group-2" transform="translate(358.400000, 0.000000)">
                    <path d="M40.767484,72.0592593 L0.74899368,72.0592593 L0.74899368,0 L40.767484,0 L40.767484,72.0592593 Z M81.6644359,72.0592593 L149.292204,0 L200.163166,0 L133.985058,72.0592593 L81.6644359,72.0592593 Z M149.945889,165.925926 L201.519725,237.037037 L154.04016,237.037037 L100.12093,165.925926 L149.945889,165.925926 Z M45.0757921,165.925926 L40.767484,170.571716 L40.767484,237.037037 L0.74899368,237.037037 L0.74899368,165.925926 L45.0757921,165.925926 Z" id="Path"></path>
                </g>
                <g id="Group-3">
                    <path d="M-7.10542736e-15,165.925926 L40.0184904,165.925926 L40.0184904,237.037037 L0,237.037037 L0,165.925926 Z M0,72.0592593 L0,0 L62.4017138,0 L97.0392816,72.0592593 L50.1280211,72.0592593 L40.0184904,51.8836433 L40.0184904,72.0592593 L0,72.0592593 Z M170.88112,72.0592593 L205.518688,0 L267.581262,0 L267.581262,72.0592593 L227.562771,72.0592593 L227.562771,51.8836433 L217.411638,72.0592593 L170.88112,72.0592593 Z M267.581262,165.925926 L267.581262,237.037037 L227.562771,237.037037 L227.562771,165.925926 L267.581262,165.925926 Z M170.183682,165.925926 L144.812673,216.351401 L122.429449,216.351401 L97.1624192,165.925926 L170.183682,165.925926 Z" id="MKM"></path>
                </g>
                <g id="M" transform="translate(622.933333, 0.000000)">
                    <path d="M0.744664105,165.925926 L40.7631545,165.925926 L40.7631545,237.037037 L0.744664105,237.037037 L0.744664105,165.925926 Z M0.744664105,72.0592593 L0.744664105,0 L63.1463779,0 L97.7839457,72.0592593 L50.8726852,72.0592593 L40.7631545,51.8836433 L40.7631545,72.0592593 L0.744664105,72.0592593 Z M171.625784,72.0592593 L206.263352,0 L268.325926,0 L268.325926,72.0592593 L228.307436,72.0592593 L228.307436,51.8836433 L218.156302,72.0592593 L171.625784,72.0592593 Z M268.325926,165.925926 L268.325926,237.037037 L228.307436,237.037037 L228.307436,165.925926 L268.325926,165.925926 Z M170.928346,165.925926 L145.557337,216.351401 L123.174113,216.351401 L97.9070833,165.925926 L170.928346,165.925926 Z" id="M2"></path>
                </g>
                <path d="M32.7339467,113.981046 L22.8510139,134.019364 L17.9879835,134.019364 L8.15734135,113.981046 L8.15734135,137.061831 L0,137.061831 L0,100.394857 L11.0333271,100.394857 L20.445644,120.538087 L29.9102516,100.394857 L40.891288,100.394857 L40.891288,137.061831 L32.7339467,137.061831 L32.7339467,113.981046 Z M68.274158,100.394857 L76.4314994,100.394857 L76.4314994,137.061831 L68.274158,137.061831 L68.274158,100.394857 Z M115.579766,106.742073 C114.220202,106.742073 113.148254,107.06555 112.363891,107.712515 C111.579527,108.359479 111.187351,109.216257 111.187351,110.282875 C111.187351,111.349492 111.666677,112.197528 112.625344,112.827007 C113.584011,113.456486 115.797626,114.19961 119.266256,115.056401 C122.734887,115.913192 125.427828,117.198359 127.345162,118.911941 C129.262495,120.625523 130.221147,123.125916 130.221147,126.413196 C130.221147,129.700476 128.992329,132.366979 126.534657,134.412786 C124.076984,136.458593 120.843711,137.481481 116.834741,137.481481 C111.04788,137.481481 105.836298,135.330793 101.199837,131.029353 L106.062867,125.049331 C110.002116,128.511467 113.644995,130.242508 116.991613,130.242508 C118.490619,130.242508 119.667147,129.919031 120.521232,129.272066 C121.375317,128.625101 121.802353,127.750838 121.802353,126.64925 C121.802353,125.547661 121.349172,124.673398 120.442796,124.026433 C119.53642,123.379468 117.741126,122.723771 115.056859,122.059321 C110.803865,121.04516 107.692602,119.725022 105.722978,118.098868 C103.753354,116.472714 102.768556,113.919864 102.768556,110.440244 C102.768556,106.960623 104.014804,104.276635 106.507338,102.388197 C108.999871,100.49976 112.111134,99.5555556 115.841219,99.5555556 C118.281461,99.5555556 120.721667,99.975202 123.16191,100.814507 C125.602152,101.653813 127.728617,102.842811 129.541369,104.381538 L125.410408,110.361559 C122.238092,107.948556 118.961244,106.742073 115.579766,106.742073 Z M178.258824,100.394857 L186.416165,100.394857 L186.416165,137.061831 L178.258824,137.061831 L178.258824,122.63634 L163.722023,122.63634 L163.722023,137.061831 L155.564682,137.061831 L155.564682,100.394857 L163.722023,100.394857 L163.722023,115.712105 L178.258824,115.712105 L178.258824,100.394857 Z M239.839779,137.061831 L236.440887,129.140925 L221.119726,129.140925 L217.720834,137.061831 L209.040586,137.061831 L224.832362,100.394857 L232.728251,100.394857 L248.520027,137.061831 L239.839779,137.061831 Z M228.806452,111.305773 L224.204875,121.954408 L233.355738,121.954408 L228.806452,111.305773 Z M303.338057,100.394857 L311.495399,100.394857 L311.495399,115.449823 L325.30013,100.394857 L335.392226,100.394857 L320.855425,116.603863 C322.110407,118.352416 324.428602,121.613418 327.810081,126.386968 C331.19156,131.160518 333.718916,134.71877 335.392226,137.061831 L325.875327,137.061831 L315.155744,122.583884 L311.495399,126.675478 L311.495399,137.061831 L303.338057,137.061831 L303.338057,100.394857 Z M388.502095,112.564725 C388.502095,118.439863 386.1839,122.234167 381.547439,123.947749 L390.802884,137.061831 L380.763079,137.061831 L372.658028,125.364069 L367.010638,125.364069 L367.010638,137.061831 L358.853297,137.061831 L358.853297,100.394857 L372.710319,100.394857 C378.392598,100.394857 382.445083,101.356547 384.867895,103.279955 C387.290707,105.203363 388.502095,108.298256 388.502095,112.564725 Z M372.971772,118.282465 C375.760621,118.282465 377.660495,117.827848 378.671453,116.9186 C379.682411,116.009353 380.187882,114.566818 380.187882,112.590953 C380.187882,110.615088 379.664981,109.25998 378.619162,108.525588 C377.573344,107.791196 375.74319,107.424005 373.128644,107.424005 L367.010638,107.424005 L367.010638,118.282465 L372.971772,118.282465 Z M424.931248,127.619692 C426.290811,129.298303 428.120966,130.137595 430.421766,130.137595 C432.722566,130.137595 434.544005,129.28956 435.886139,127.593463 C437.228272,125.897367 437.899329,123.580569 437.899329,120.643 L437.899329,100.394857 L446.05667,100.394857 L446.05667,120.905281 C446.05667,126.220883 444.592546,130.303693 441.664255,133.153834 C438.735964,136.003976 434.988505,137.429025 430.421766,137.429025 C425.855026,137.429025 422.098852,135.995233 419.153131,133.127606 C416.207409,130.259979 414.734571,126.185912 414.734571,120.905281 L414.734571,100.394857 L422.891912,100.394857 L422.891912,120.643 C422.891912,123.580569 423.571684,125.90611 424.931248,127.619692 Z M488.394666,107.476461 L488.394666,137.061831 L480.237324,137.061831 L480.237324,107.476461 L469.883776,107.476461 L469.883776,100.394857 L498.748214,100.394857 L498.748214,107.476461 L488.394666,107.476461 Z M523.098227,100.394857 L531.255568,100.394857 L531.255568,137.061831 L523.098227,137.061831 L523.098227,100.394857 Z M574.377924,137.061831 L566.220582,137.061831 L566.220582,122.583884 L553.566245,100.394857 L562.403365,100.394857 L570.299253,114.033502 L578.195141,100.394857 L587.032261,100.394857 L574.377924,122.583884 L574.377924,137.061831 Z M674.270494,113.981046 L664.387561,134.019364 L659.524531,134.019364 L649.693889,113.981046 L649.693889,137.061831 L641.536548,137.061831 L641.536548,100.394857 L652.569875,100.394857 L661.982192,120.538087 L671.446799,100.394857 L682.427836,100.394857 L682.427836,137.061831 L674.270494,137.061831 L674.270494,113.981046 Z M736.165193,100.394857 L736.165193,107.686287 L717.968047,107.686287 L717.968047,115.239998 L734.33502,115.239998 L734.33502,122.21669 L717.968047,122.21669 L717.968047,129.822857 L736.74039,129.822857 L736.74039,137.061831 L709.810706,137.061831 L709.810706,100.394857 L736.165193,100.394857 Z M775.313459,100.394857 C781.832393,100.394857 786.834815,101.994759 790.320876,105.194611 C793.806936,108.394463 795.549941,112.844464 795.549941,118.544747 C795.549941,124.24503 793.850511,128.756229 790.451602,132.07848 C787.052693,135.40073 781.867255,137.061831 774.895134,137.061831 L762.397669,137.061831 L762.397669,100.394857 L775.313459,100.394857 Z M775.731784,129.822857 C779.461869,129.822857 782.329111,128.878653 784.333596,126.990216 C786.338081,125.101778 787.340309,122.356591 787.340309,118.754572 C787.340309,115.152553 786.338081,112.381138 784.333596,110.440244 C782.329111,108.49935 779.252709,107.528918 775.104297,107.528918 L770.55501,107.528918 L770.55501,129.822857 L775.731784,129.822857 Z M820.998057,100.394857 L829.155398,100.394857 L829.155398,137.061831 L820.998057,137.061831 L820.998057,100.394857 Z M882.579011,137.061831 L879.180119,129.140925 L863.858959,129.140925 L860.460067,137.061831 L851.779819,137.061831 L867.571595,100.394857 L875.467483,100.394857 L891.259259,137.061831 L882.579011,137.061831 Z M871.545684,111.305773 L866.944107,121.954408 L876.094971,121.954408 L871.545684,111.305773 Z" id="MISHA-KRUTIY-MEDIA"></path>
            </g>
        </g>
    </g>
</svg>